<svg width="84" height="68" viewBox="0 0 84 68" fill="none" xmlns="http://www.w3.org/2000/svg">
<path d="M82.6667 33.8542V44.575C82.6667 52.3224 82.6667 56.1961 80.8864 59.1552C79.3205 61.7581 76.8218 63.8743 73.7485 65.2006C70.2546 66.7083 65.6809 66.7083 56.5333 66.7083H27.1333C17.9858 66.7083 13.412 66.7083 9.91815 65.2006C6.84484 63.8743 4.34616 61.7581 2.78023 59.1552C1 56.1961 1 52.3224 1 44.575V26.5917C1 18.8443 1 14.9706 2.78023 12.0115C4.34616 9.40856 6.84484 7.29232 9.91815 5.96608C13.412 4.45833 17.9858 4.45833 27.1333 4.45833H43.875M70.4167 21.75V1M58.1667 11.375H82.6667M58.1667 35.5833C58.1667 43.2233 50.854 49.4167 41.8333 49.4167C32.8127 49.4167 25.5 43.2233 25.5 35.5833C25.5 27.9434 32.8127 21.75 41.8333 21.75C50.854 21.75 58.1667 27.9434 58.1667 35.5833Z" stroke="black" stroke-width="2" stroke-linecap="round" stroke-linejoin="round"/>
</svg>
