<svg width="340" height="217" viewBox="0 0 340 217" fill="none" xmlns="http://www.w3.org/2000/svg">
<path d="M118.429 84.891C120.61 84.3067 121.904 82.0652 121.319 79.8845C120.735 77.7038 118.494 76.4097 116.313 76.994C114.132 77.5783 112.838 79.8198 113.422 82.0005C114.007 84.1812 116.248 85.4753 118.429 84.891Z" stroke="#C2203B" stroke-miterlimit="10" stroke-linecap="round" stroke-linejoin="round"/>
<path d="M117.808 82.573C118.709 82.3317 119.243 81.4061 119.002 80.5057C118.76 79.6052 117.835 79.0709 116.934 79.3122C116.034 79.5534 115.5 80.479 115.741 81.3794C115.982 82.2799 116.908 82.8142 117.808 82.573Z" stroke="#C2203B" stroke-miterlimit="10" stroke-linecap="round" stroke-linejoin="round"/>
<path d="M130.742 81.5918C132.923 81.0075 134.217 78.766 133.633 76.5853C133.049 74.4046 130.807 73.1105 128.626 73.6948C126.446 74.2791 125.152 76.5206 125.736 78.7013C126.32 80.882 128.562 82.1761 130.742 81.5918Z" stroke="#C2203B" stroke-miterlimit="10" stroke-linecap="round" stroke-linejoin="round"/>
<path d="M130.122 79.2738C131.022 79.0325 131.556 78.1069 131.315 77.2065C131.074 76.3061 130.148 75.7717 129.248 76.013C128.347 76.2542 127.813 77.1798 128.054 78.0802C128.296 78.9807 129.221 79.515 130.122 79.2738Z" stroke="#C2203B" stroke-miterlimit="10" stroke-linecap="round" stroke-linejoin="round"/>
<path d="M103.794 73.1035L110.826 71.2191" stroke="#C2203B" stroke-miterlimit="10" stroke-linecap="round" stroke-linejoin="round"/>
<path d="M101.555 76.6305L109.783 74.426" stroke="#C2203B" stroke-miterlimit="10" stroke-linecap="round" stroke-linejoin="round"/>
<path d="M105.257 78.5663L109.695 77.3771" stroke="#C2203B" stroke-miterlimit="10" stroke-linecap="round" stroke-linejoin="round"/>
<path d="M119.401 63.8945L118.855 61.8563" stroke="#C2203B" stroke-miterlimit="10" stroke-linecap="round" stroke-linejoin="round"/>
<path d="M129.975 65.7386C126.973 63.7771 123.181 63.0528 119.444 64.054C112.501 65.9144 108.37 73.031 110.184 79.9757" stroke="#C2203B" stroke-miterlimit="10" stroke-linecap="round" stroke-linejoin="round"/>
<path d="M135.42 73.1975C134.775 70.8616 133.535 68.8479 131.906 67.2772" stroke="#C2203B" stroke-miterlimit="10" stroke-linecap="round" stroke-linejoin="round"/>
<path d="M125.934 79.4425L121.518 80.6259" stroke="#C2203B" stroke-miterlimit="10" stroke-linecap="round" stroke-linejoin="round"/>
<path d="M132.069 74.1843L136.121 73.0985C136.849 72.9035 137.437 73.7042 137.034 74.3406C136.249 75.5767 135.138 76.558 133.837 77.1845" stroke="#C2203B" stroke-miterlimit="10" stroke-linecap="round" stroke-linejoin="round"/>
<path d="M119.679 77.5044L125.898 75.8381" stroke="#C2203B" stroke-miterlimit="10" stroke-linecap="round" stroke-linejoin="round"/>
<path d="M113.64 82.6144C112.168 82.7432 110.68 82.451 109.354 81.7577C108.687 81.4084 108.796 80.4209 109.524 80.2258L113.585 79.1377" stroke="#C2203B" stroke-miterlimit="10" stroke-linecap="round" stroke-linejoin="round"/>
<path d="M116.957 62.2812L120.712 61.275" stroke="#C2203B" stroke-miterlimit="10" stroke-linecap="round" stroke-linejoin="round"/>
<path d="M112.755 74.3836C112.562 75.2346 112.475 76.1169 112.506 77.0115" stroke="#C2203B" stroke-miterlimit="10" stroke-linecap="round" stroke-linejoin="round"/>
<path d="M120.151 66.694C117.188 67.488 114.873 69.494 113.597 72.0359" stroke="#C2203B" stroke-miterlimit="10" stroke-linecap="round" stroke-linejoin="round"/>
<path d="M299.937 176.4C302.158 176.805 304.287 175.333 304.692 173.112C305.097 170.891 303.625 168.762 301.404 168.357C299.183 167.952 297.054 169.424 296.649 171.645C296.244 173.866 297.716 175.995 299.937 176.4Z" stroke="#C2203B" stroke-miterlimit="10" stroke-linecap="round" stroke-linejoin="round"/>
<path d="M300.368 174.039C301.285 174.207 302.164 173.599 302.332 172.682C302.499 171.765 301.891 170.886 300.974 170.718C300.057 170.551 299.178 171.159 299.01 172.076C298.843 172.993 299.451 173.872 300.368 174.039Z" stroke="#C2203B" stroke-miterlimit="10" stroke-linecap="round" stroke-linejoin="round"/>
<path d="M312.478 178.687C314.699 179.092 316.828 177.62 317.233 175.399C317.638 173.178 316.166 171.049 313.945 170.644C311.724 170.239 309.595 171.711 309.19 173.932C308.785 176.153 310.257 178.282 312.478 178.687Z" stroke="#C2203B" stroke-miterlimit="10" stroke-linecap="round" stroke-linejoin="round"/>
<path d="M312.909 176.326C313.826 176.494 314.705 175.886 314.872 174.969C315.04 174.052 314.432 173.173 313.515 173.005C312.598 172.838 311.719 173.446 311.551 174.363C311.384 175.28 311.992 176.159 312.909 176.326Z" stroke="#C2203B" stroke-miterlimit="10" stroke-linecap="round" stroke-linejoin="round"/>
<path d="M291.753 159.484L298.916 160.79" stroke="#C2203B" stroke-miterlimit="10" stroke-linecap="round" stroke-linejoin="round"/>
<path d="M288.221 161.714L296.601 163.242" stroke="#C2203B" stroke-miterlimit="10" stroke-linecap="round" stroke-linejoin="round"/>
<path d="M290.739 165.048L295.259 165.872" stroke="#C2203B" stroke-miterlimit="10" stroke-linecap="round" stroke-linejoin="round"/>
<path d="M309.801 157.839L310.179 155.763" stroke="#C2203B" stroke-miterlimit="10" stroke-linecap="round" stroke-linejoin="round"/>
<path d="M318.569 164.03C316.694 160.973 313.577 158.695 309.771 158.001C302.699 156.712 295.92 161.376 294.589 168.43" stroke="#C2203B" stroke-miterlimit="10" stroke-linecap="round" stroke-linejoin="round"/>
<path d="M320.298 173.101C320.715 170.714 320.455 168.363 319.655 166.247" stroke="#C2203B" stroke-miterlimit="10" stroke-linecap="round" stroke-linejoin="round"/>
<path d="M309.052 174.687L304.554 173.867" stroke="#C2203B" stroke-miterlimit="10" stroke-linecap="round" stroke-linejoin="round"/>
<path d="M316.847 172.559L320.974 173.312C321.715 173.447 321.904 174.423 321.267 174.825C320.03 175.607 318.606 176.018 317.161 176.027" stroke="#C2203B" stroke-miterlimit="10" stroke-linecap="round" stroke-linejoin="round"/>
<path d="M304.228 170.259L310.562 171.414" stroke="#C2203B" stroke-miterlimit="10" stroke-linecap="round" stroke-linejoin="round"/>
<path d="M296.583 172.293C295.198 171.78 293.978 170.879 293.076 169.685C292.622 169.084 293.143 168.238 293.885 168.373L298.021 169.127" stroke="#C2203B" stroke-miterlimit="10" stroke-linecap="round" stroke-linejoin="round"/>
<path d="M308.281 155.335L312.106 156.032" stroke="#C2203B" stroke-miterlimit="10" stroke-linecap="round" stroke-linejoin="round"/>
<path d="M299.305 164.475C298.766 165.162 298.31 165.922 297.956 166.744" stroke="#C2203B" stroke-miterlimit="10" stroke-linecap="round" stroke-linejoin="round"/>
<path d="M309.281 160.69C306.263 160.14 303.312 160.962 301.071 162.714" stroke="#C2203B" stroke-miterlimit="10" stroke-linecap="round" stroke-linejoin="round"/>
<path d="M16.8725 35.7614L11.8441 34.414C11.5314 34.3303 11.3458 34.0088 11.4296 33.6961C11.8855 31.9949 13.6341 30.9853 15.3354 31.4411C17.0366 31.8969 18.0462 33.6456 17.5903 35.3469C17.5066 35.6597 17.1852 35.8452 16.8725 35.7614Z" stroke="#C2203B" stroke-miterlimit="10" stroke-linecap="round" stroke-linejoin="round"/>
<path d="M15.3644 31.3329L15.616 30.3942" stroke="#C2203B" stroke-miterlimit="10" stroke-linecap="round" stroke-linejoin="round"/>
<path d="M25.5274 50.5853L26.1515 42.827L22.3226 41.801L21.6645 44.257" stroke="#C2203B" stroke-miterlimit="10" stroke-linecap="round" stroke-linejoin="round"/>
<path d="M11.5176 52.8525L17.6449 54.4944" stroke="#C2203B" stroke-miterlimit="10" stroke-linecap="round" stroke-linejoin="round"/>
<path d="M7.52156 43.0937C5.76616 42.6234 3.96184 43.6651 3.49148 45.4205L3.17674 46.5951" stroke="#C2203B" stroke-miterlimit="10" stroke-linecap="round" stroke-linejoin="round"/>
<path d="M21.0882 46.4094L20.0358 50.3371C19.874 50.9407 19.2535 51.299 18.6498 51.1372L15.7841 50.3694C15.1805 50.2076 14.8222 49.5871 14.984 48.9834L15.9565 45.354" stroke="#C2203B" stroke-miterlimit="10" stroke-linecap="round" stroke-linejoin="round"/>
<path d="M10.218 53.0914C9.41072 55.0335 7.27031 56.1252 5.18327 55.566C3.08966 55.005 1.78019 52.9784 2.06299 50.8859" stroke="#C2203B" stroke-miterlimit="10" stroke-linecap="round" stroke-linejoin="round"/>
<path d="M7.79116 45.8331C4.92852 45.066 1.9861 46.7648 1.21906 49.6275L1.08847 50.1148C1.03018 50.3324 1.15927 50.5559 1.3768 50.6142L10.9556 53.1809C11.1732 53.2392 11.3968 53.1101 11.455 52.8926L11.5856 52.4052C12.3526 49.5425 10.6538 46.6001 7.79116 45.8331Z" stroke="#C2203B" stroke-miterlimit="10" stroke-linecap="round" stroke-linejoin="round"/>
<path d="M10.7783 43.9665L5.99017 42.6835L6.11352 42.2232C6.44112 41.0006 7.69777 40.2751 8.9203 40.6027L9.16574 40.6684" stroke="#C2203B" stroke-miterlimit="10" stroke-linecap="round" stroke-linejoin="round"/>
<path d="M16.0125 42.5025L16.2184 42.5577C16.9569 42.7555 17.3951 43.5145 17.1972 44.2529C16.9993 44.9913 16.2404 45.4295 15.5019 45.2317L13.0877 44.5848" stroke="#C2203B" stroke-miterlimit="10" stroke-linecap="round" stroke-linejoin="round"/>
<path d="M26.8179 43.0065L22.3226 41.802L22.8534 39.8209C22.924 39.5575 23.1947 39.4011 23.4582 39.4717L26.6352 40.323C27.5463 40.5671 28.087 41.5036 27.8429 42.4147C27.7233 42.8611 27.2644 43.1261 26.8179 43.0065Z" stroke="#C2203B" stroke-miterlimit="10" stroke-linecap="round" stroke-linejoin="round"/>
<path d="M20.6149 39.5302L22.7764 40.1094L22.3229 41.8017L20.1614 41.2226C19.6941 41.0974 19.4167 40.617 19.5419 40.1497C19.6672 39.6823 20.1475 39.405 20.6149 39.5302Z" stroke="#C2203B" stroke-miterlimit="10" stroke-linecap="round" stroke-linejoin="round"/>
<path d="M26.8915 57.5367C26.0907 59.4913 23.9427 60.5925 21.8485 60.0314C19.7538 59.4701 18.4441 57.4416 18.7286 55.3479" stroke="#C2203B" stroke-miterlimit="10" stroke-linecap="round" stroke-linejoin="round"/>
<path d="M24.694 56.8624L27.6209 57.6467C27.8384 57.705 28.062 57.5759 28.1203 57.3584L28.2509 56.871C29.0179 54.0083 27.3191 51.0659 24.4564 50.2989C21.5938 49.5318 18.6514 51.2306 17.8843 54.0933L17.7538 54.5807C17.6955 54.7982 17.8246 55.0218 18.0421 55.0801L22.542 56.2858" stroke="#C2203B" stroke-miterlimit="10" stroke-linecap="round" stroke-linejoin="round"/>
<path d="M9.19941 49.5953C8.81255 48.8269 8.11206 48.2207 7.21576 47.9805C5.91595 47.6322 4.58785 48.1566 3.8536 49.1945" stroke="#C2203B" stroke-miterlimit="10" stroke-linecap="round" stroke-linejoin="round"/>
<path d="M25.8647 54.0611C25.4778 53.2927 24.7773 52.6865 23.881 52.4464C22.5812 52.0981 21.2531 52.6225 20.5189 53.6604" stroke="#C2203B" stroke-miterlimit="10" stroke-linecap="round" stroke-linejoin="round"/>
<path d="M16.7031 25.9026C12.5562 24.853 8.28558 27.3393 7.1494 31.4633C6.66185 33.233 6.8161 35.0258 7.47008 36.5961C8.17906 38.2984 10.2803 42.7153 11.1744 44.5844C11.3898 45.0347 11.9557 45.1864 12.3674 44.9041C14.0762 43.7324 18.1044 40.9578 19.5695 39.8381C20.9071 38.8159 21.9297 37.3601 22.3991 35.6083C23.5383 31.357 20.9839 26.9861 16.7031 25.9026Z" stroke="#C2203B" stroke-miterlimit="10" stroke-linecap="round" stroke-linejoin="round"/>
<path d="M13.3259 38.9391C16.2953 39.7348 19.3475 37.9726 20.1431 35.0032C20.9388 32.0338 19.1766 28.9816 16.2072 28.1859C13.2378 27.3902 10.1856 29.1524 9.38991 32.1219C8.59425 35.0913 10.3564 38.1435 13.3259 38.9391Z" stroke="#C2203B" stroke-miterlimit="10" stroke-linecap="round" stroke-linejoin="round"/>
<path d="M315.745 63.1568L311.009 65.3185C310.715 65.453 310.367 65.3232 310.233 65.0287C309.501 63.4265 310.207 61.5347 311.81 60.8033C313.412 60.072 315.304 60.778 316.035 62.3802C316.169 62.6747 316.04 63.0224 315.745 63.1568Z" stroke="#C2203B" stroke-miterlimit="10" stroke-linecap="round" stroke-linejoin="round"/>
<path d="M311.763 60.7014L311.36 59.8173" stroke="#C2203B" stroke-miterlimit="10" stroke-linecap="round" stroke-linejoin="round"/>
<path d="M331.856 69.0803L327.399 62.6995L323.793 64.3456L324.849 66.6586" stroke="#C2203B" stroke-miterlimit="10" stroke-linecap="round" stroke-linejoin="round"/>
<path d="M322.495 79.7468L328.265 77.1127" stroke="#C2203B" stroke-miterlimit="10" stroke-linecap="round" stroke-linejoin="round"/>
<path d="M313.201 74.7641C311.547 75.5187 310.819 77.4707 311.574 79.1239L312.079 80.2302" stroke="#C2203B" stroke-miterlimit="10" stroke-linecap="round" stroke-linejoin="round"/>
<path d="M325.774 68.6855L327.463 72.3846C327.722 72.9531 327.472 73.6244 326.903 73.8839L324.204 75.1159C323.636 75.3754 322.965 75.1249 322.705 74.5564L321.145 71.1381" stroke="#C2203B" stroke-miterlimit="10" stroke-linecap="round" stroke-linejoin="round"/>
<path d="M321.644 80.7584C322.258 82.77 321.302 84.9745 319.337 85.8717C317.365 86.7717 315.065 86.0422 313.951 84.2484" stroke="#C2203B" stroke-miterlimit="10" stroke-linecap="round" stroke-linejoin="round"/>
<path d="M315.152 76.7051C312.456 77.9357 311.268 81.1189 312.499 83.8149L312.709 84.2739C312.802 84.4788 313.044 84.5691 313.249 84.4756L322.27 80.3576C322.475 80.2641 322.565 80.0223 322.472 79.8174L322.262 79.3584C321.032 76.6624 317.848 75.4744 315.152 76.7051Z" stroke="#C2203B" stroke-miterlimit="10" stroke-linecap="round" stroke-linejoin="round"/>
<path d="M316.268 73.3641L311.759 75.4226L311.561 74.989C311.035 73.8375 311.542 72.4781 312.694 71.9525L312.925 71.847" stroke="#C2203B" stroke-miterlimit="10" stroke-linecap="round" stroke-linejoin="round"/>
<path d="M319.373 68.9032L319.567 68.8147C320.262 68.4972 321.083 68.8036 321.401 69.4991C321.718 70.1945 321.412 71.0156 320.716 71.333L318.443 72.3709" stroke="#C2203B" stroke-miterlimit="10" stroke-linecap="round" stroke-linejoin="round"/>
<path d="M328.027 62.4137L323.793 64.3463L322.942 62.4805C322.829 62.2324 322.938 61.9395 323.186 61.8262L326.178 60.4604C327.036 60.0687 328.049 60.4468 328.441 61.3049C328.633 61.7253 328.448 62.2218 328.027 62.4137Z" stroke="#C2203B" stroke-miterlimit="10" stroke-linecap="round" stroke-linejoin="round"/>
<path d="M321.03 63.6813L323.066 62.7521L323.794 64.3459L321.758 65.2751C321.318 65.4761 320.798 65.2821 320.597 64.842C320.396 64.4019 320.59 63.8822 321.03 63.6813Z" stroke="#C2203B" stroke-miterlimit="10" stroke-linecap="round" stroke-linejoin="round"/>
<path d="M337.333 73.5732C337.96 75.5905 337.004 77.807 335.032 78.7073C333.059 79.6078 330.758 78.8771 329.644 77.0812" stroke="#C2203B" stroke-miterlimit="10" stroke-linecap="round" stroke-linejoin="round"/>
<path d="M335.209 74.452L337.966 73.1937C338.171 73.1002 338.261 72.8583 338.167 72.6535L337.958 72.1945C336.727 69.4984 333.544 68.3105 330.848 69.5411C328.152 70.7718 326.964 73.955 328.195 76.651L328.404 77.11C328.498 77.3149 328.74 77.4051 328.944 77.3116L333.182 75.3771" stroke="#C2203B" stroke-miterlimit="10" stroke-linecap="round" stroke-linejoin="round"/>
<path d="M318.633 78.7102C317.846 78.3639 316.92 78.3423 316.076 78.7276C314.851 79.2864 314.161 80.5362 314.255 81.8041" stroke="#C2203B" stroke-miterlimit="10" stroke-linecap="round" stroke-linejoin="round"/>
<path d="M334.329 71.5463C333.541 71.2 332.615 71.1783 331.771 71.5637C330.547 72.1224 329.856 73.3723 329.951 74.6401" stroke="#C2203B" stroke-miterlimit="10" stroke-linecap="round" stroke-linejoin="round"/>
<path d="M309.339 55.6612C305.473 57.4914 303.762 62.1274 305.51 66.0312C306.261 67.7064 307.521 68.9909 309.025 69.7856C310.655 70.6473 315.088 72.7162 316.967 73.5886C317.42 73.7988 317.953 73.5555 318.09 73.0757C318.662 71.0843 320.003 66.3804 320.42 64.5841C320.801 62.9443 320.663 61.1706 319.91 59.5207C318.082 55.5169 313.33 53.7719 309.339 55.6612Z" stroke="#C2203B" stroke-miterlimit="10" stroke-linecap="round" stroke-linejoin="round"/>
<path d="M315.033 67.8653C317.829 66.5888 319.061 63.2868 317.785 60.4902C316.508 57.6936 313.206 56.4614 310.41 57.7379C307.613 59.0145 306.381 62.3164 307.658 65.113C308.934 67.9096 312.236 69.1419 315.033 67.8653Z" stroke="#C2203B" stroke-miterlimit="10" stroke-linecap="round" stroke-linejoin="round"/>
<g clip-path="url(#clip0_23_1915)">
<path fill-rule="evenodd" clip-rule="evenodd" d="M232.822 199.077C231.886 199.519 231.162 200.312 230.806 201.284C230.712 201.54 230.843 201.824 231.099 201.918C231.356 202.012 231.64 201.881 231.734 201.625C232.291 200.11 233.957 199.318 235.483 199.845C235.741 199.934 236.023 199.797 236.112 199.538C236.201 199.28 236.064 198.999 235.805 198.91C234.828 198.571 233.756 198.631 232.822 199.077Z" fill="#C2203B"/>
<path d="M251.055 193.703C250.311 192.141 248.528 191.368 246.879 191.891C245.78 189.921 244.325 188.172 242.587 186.733C242.911 186.442 243.007 185.973 242.822 185.578L241.551 182.9C241.317 182.407 240.727 182.197 240.234 182.431L238.002 183.49C237.263 183.841 236.948 184.726 237.299 185.465L237.511 185.911L236.172 186.547C235.925 186.664 235.82 186.959 235.937 187.205C236.054 187.452 236.349 187.557 236.595 187.44L237.935 186.804L238.146 187.251C238.436 187.854 239.094 188.188 239.752 188.067C241.341 189.802 242.713 191.724 243.837 193.791C243.966 194.03 243.991 194.311 243.906 194.568C243.822 194.826 243.635 195.037 243.389 195.152L239.494 197.002L232.501 182.273C232.033 181.287 230.854 180.867 229.868 181.335L217.37 187.269C216.384 187.737 215.964 188.916 216.432 189.902L227.452 213.113C227.92 214.099 229.099 214.519 230.085 214.05L242.583 208.117C243.569 207.649 243.989 206.47 243.521 205.484L242.249 202.806L252.516 197.932C252.762 197.815 252.867 197.52 252.75 197.274C252.633 197.027 252.339 196.922 252.092 197.039L251.405 197.365C251.615 196.666 251.557 195.913 251.244 195.254C251.158 195.072 251.054 194.899 250.933 194.738C251.168 194.445 251.215 194.043 251.055 193.703ZM240.343 183.473L240.658 183.323L241.929 186.002L241.614 186.151C241.059 186.016 240.606 185.618 240.401 185.086C240.118 184.591 240.097 183.988 240.343 183.473ZM239.039 186.827L238.192 185.041C238.075 184.795 238.179 184.5 238.426 184.383L239.195 184.018C239.17 184.534 239.278 185.048 239.508 185.51C239.721 185.981 240.051 186.389 240.467 186.696L239.697 187.061C239.451 187.178 239.156 187.073 239.039 186.827ZM227.476 183.565L227.193 184.447C227.11 184.707 226.923 184.921 226.676 185.038L222.257 187.136C222.011 187.253 221.727 187.263 221.472 187.163L220.61 186.824L227.476 183.565ZM242.628 205.908C242.862 206.401 242.652 206.99 242.159 207.224L229.661 213.158C229.168 213.392 228.578 213.182 228.344 212.689L228.015 211.994C228.361 212.027 228.71 211.966 229.025 211.819L241.523 205.885C241.837 205.734 242.104 205.502 242.298 205.213L242.628 205.908L242.628 205.908ZM241.569 203.676C241.803 204.169 241.593 204.758 241.1 204.992L228.601 210.926C228.108 211.16 227.519 210.95 227.285 210.457L217.325 189.478C217.091 188.985 217.301 188.395 217.794 188.161L219.386 187.405L221.111 188.083C221.62 188.282 222.188 188.262 222.681 188.029L227.1 185.931C227.593 185.696 227.968 185.268 228.135 184.749L228.7 182.984L230.292 182.228C230.785 181.994 231.375 182.204 231.609 182.697L238.602 197.427L238.183 197.626C237.967 197.734 237.718 197.756 237.488 197.686C236.763 197.437 236.17 196.908 235.839 196.217L235.506 195.514C236.018 195.006 236.088 194.203 235.673 193.613C235.258 193.024 234.478 192.819 233.827 193.13L231.793 194.095C231.826 193.749 231.765 193.4 231.618 193.085L229.499 188.621C229.031 187.635 227.852 187.215 226.866 187.683L222.402 189.802C221.416 190.271 220.996 191.45 221.464 192.436L223.583 196.899C223.734 197.213 223.966 197.48 224.255 197.674L223.561 198.004C223.314 198.121 223.209 198.416 223.326 198.662C223.443 198.909 223.738 199.014 223.984 198.897L227.637 197.162C227.691 197.783 228.138 198.299 228.745 198.442C228.39 199.459 228.061 201.392 229.171 204.033C229.277 204.284 229.482 204.482 229.736 204.58C229.988 204.677 230.267 204.666 230.51 204.55L231.392 204.131C231.791 204.972 232.513 205.616 233.394 205.916L228.881 208.058C228.634 208.175 228.529 208.47 228.647 208.717C228.764 208.963 229.058 209.068 229.305 208.951L241.357 203.229L241.569 203.676ZM225.436 192.738L227.222 191.89C227.715 191.656 227.925 191.066 227.691 190.573L226.843 188.788L227.289 188.576C227.782 188.342 228.372 188.552 228.606 189.045L230.725 193.509C230.959 194.002 230.749 194.591 230.256 194.825L225.792 196.944C225.299 197.178 224.71 196.968 224.476 196.475L222.357 192.012C222.123 191.519 222.333 190.929 222.826 190.695L223.272 190.483L224.12 192.269C224.354 192.762 224.943 192.972 225.436 192.738ZM225.012 191.845L224.165 190.059L225.95 189.212L226.798 190.997L225.012 191.845ZM228.894 196.566L234.251 194.023C234.497 193.906 234.792 194.011 234.909 194.257C235.026 194.504 234.921 194.798 234.675 194.915L229.318 197.458C229.072 197.575 228.777 197.47 228.66 197.224C228.543 196.977 228.648 196.683 228.894 196.566ZM232.285 203.707L236.749 201.588C237.334 202.821 236.809 204.295 235.576 204.88C234.344 205.465 232.87 204.94 232.285 203.707ZM240.933 202.337L237.759 203.844C238.083 202.971 238.041 202.005 237.641 201.164L239.873 200.105L240.933 202.337L240.933 202.337ZM241.826 201.913L240.766 199.681L245.716 197.331C245.761 197.491 245.818 197.646 245.888 197.796C246.201 198.456 246.748 198.976 247.423 199.256L241.826 201.913ZM249.414 198.31C248.428 198.779 247.249 198.359 246.781 197.373C246.711 197.221 246.661 197.061 246.631 196.897L250.077 195.261C250.186 195.388 250.278 195.528 250.351 195.677C250.82 196.663 250.4 197.842 249.414 198.31ZM249.979 194.213L249.977 194.214L230.082 203.65C228.817 200.64 229.634 198.746 229.881 198.285L234.652 196.02L234.947 196.641C235.392 197.572 236.193 198.286 237.169 198.621C237.643 198.777 238.159 198.74 238.606 198.519L243.813 196.047C244.305 195.812 244.679 195.386 244.848 194.868C245.017 194.353 244.964 193.792 244.702 193.317C243.599 191.287 242.267 189.391 240.731 187.665L241.635 187.235C243.532 188.725 245.092 190.6 246.21 192.737C246.337 192.974 246.628 193.07 246.871 192.954C248.104 192.371 249.576 192.895 250.162 194.126L249.979 194.213L249.979 194.213Z" fill="#C2203B"/>
</g>
<g clip-path="url(#clip1_23_1915)">
<path fill-rule="evenodd" clip-rule="evenodd" d="M176.089 19.1087C175.074 18.9078 174.021 19.1151 173.157 19.6856C172.929 19.8356 172.866 20.1421 173.016 20.3701C173.166 20.5982 173.472 20.6614 173.7 20.5113C175.049 19.6237 176.859 19.9778 177.774 21.308C177.928 21.5329 178.236 21.5898 178.461 21.4351C178.686 21.2805 178.743 20.9727 178.588 20.7478C178.003 19.8941 177.105 19.3051 176.089 19.1087Z" fill="#C2203B"/>
<path d="M193.947 25.6224C194.277 23.924 193.303 22.2428 191.666 21.684C191.953 19.4462 191.821 17.1745 191.279 14.9846C191.713 14.9435 192.069 14.6228 192.155 14.1953L192.724 11.2857C192.828 10.7501 192.479 10.2309 191.943 10.1262L189.519 9.65197C188.715 9.49483 187.937 10.0188 187.78 10.8222L187.685 11.3071L186.23 11.0226C185.962 10.9702 185.703 11.1449 185.65 11.4127C185.598 11.6805 185.772 11.94 186.04 11.9924L187.495 12.2769L187.4 12.7618C187.274 13.4192 187.605 14.0792 188.206 14.3726C188.453 16.7124 188.414 19.0736 188.09 21.4039C188.052 21.6724 187.905 21.9133 187.684 22.0701C187.463 22.2269 187.187 22.2857 186.921 22.2326L182.689 21.4049L185.818 5.40388C186.028 4.33261 185.329 3.29431 184.258 3.08479L170.68 0.429182C169.609 0.219657 168.571 0.918247 168.361 1.98953L163.429 27.2057C163.22 28.2769 163.918 29.3152 164.99 29.5247L178.568 32.1803C179.639 32.3899 180.677 31.6913 180.887 30.62L181.456 27.7105L192.609 29.8919C192.877 29.9443 193.136 29.7696 193.189 29.5018C193.241 29.234 193.066 28.9744 192.799 28.9221L192.052 28.776C192.636 28.3382 193.038 27.6991 193.178 26.9823C193.217 26.785 193.235 26.5842 193.234 26.3831C193.597 26.2865 193.874 25.9913 193.947 25.6224ZM191.411 11.029L191.754 11.096L191.185 14.0055L190.842 13.9385C190.476 13.5004 190.349 12.9112 190.499 12.3611C190.567 11.7944 190.908 11.2968 191.411 11.029ZM188.37 12.9516L188.749 11.0118C188.802 10.7441 189.061 10.5694 189.329 10.6218L190.165 10.7853C189.838 11.1852 189.619 11.6625 189.53 12.1714C189.421 12.6765 189.444 13.2011 189.596 13.6948L188.76 13.5313C188.492 13.4789 188.318 13.2194 188.37 12.9516ZM181.009 3.45628L180.257 3.99796C180.036 4.15752 179.758 4.21844 179.49 4.16614L174.689 3.22719C174.421 3.17444 174.187 3.01351 174.042 2.78235L173.55 1.9974L181.009 3.45628ZM179.917 30.4303C179.812 30.9659 179.293 31.3152 178.757 31.2105L165.179 28.5549C164.644 28.4501 164.294 27.9309 164.399 27.3953L164.547 26.6407C164.806 26.8727 165.123 27.0312 165.464 27.1L179.042 29.7556C179.384 29.8204 179.737 29.7928 180.064 29.6757L179.917 30.4303L179.917 30.4303ZM180.391 28.0057C180.286 28.5413 179.767 28.8906 179.231 28.7858L165.654 26.1302C165.118 26.0255 164.769 25.5063 164.873 24.9707L169.331 2.17922C169.436 1.64358 169.955 1.29428 170.491 1.39904L172.22 1.73735L173.205 3.30738C173.495 3.76948 173.964 4.09128 174.5 4.1971L179.3 5.13605C179.837 5.24025 180.392 5.1186 180.835 4.79984L182.339 3.71634L184.068 4.05465C184.604 4.15941 184.953 4.67856 184.849 5.2142L181.719 21.2167L181.263 21.1276C181.026 21.087 180.813 20.9565 180.669 20.7631C180.234 20.1325 180.071 19.3538 180.216 18.6018L180.366 17.8386C181.079 17.734 181.613 17.1301 181.63 16.4091C181.646 15.6882 181.14 15.0605 180.432 14.9234L178.223 14.4913C178.455 14.2319 178.613 13.9153 178.682 13.5742L179.631 8.72491C179.84 7.65363 179.142 6.61534 178.07 6.40581L173.221 5.45739C172.15 5.24786 171.111 5.94645 170.902 7.01773L169.954 11.867C169.889 12.2089 169.916 12.5619 170.033 12.8896L169.279 12.742C169.011 12.6896 168.752 12.8643 168.699 13.1321C168.647 13.3999 168.821 13.6594 169.089 13.7118L173.058 14.488C172.732 15.0194 172.785 15.6999 173.188 16.175C172.298 16.7828 170.885 18.1413 170.208 20.9249C170.144 21.1905 170.191 21.4705 170.338 21.701C170.482 21.9281 170.714 22.0857 170.978 22.1368L171.936 22.3242C171.757 23.2375 171.955 24.1842 172.486 24.9491L167.583 23.9901C167.315 23.9377 167.055 24.1124 167.003 24.3802C166.95 24.648 167.125 24.9076 167.393 24.9599L180.486 27.5207L180.391 28.0057ZM173.917 9.62132L175.857 10.0007C176.392 10.1055 176.912 9.75616 177.016 9.22052L177.396 7.2808L177.881 7.37564C178.416 7.4804 178.766 7.99955 178.661 8.53519L177.712 13.3844C177.608 13.9201 177.088 14.2694 176.553 14.1646L171.704 13.2162C171.168 13.1114 170.819 12.5923 170.923 12.0566L171.872 7.20742C171.977 6.67178 172.496 6.32249 173.031 6.42725L173.516 6.52209L173.137 8.46181C173.032 8.99746 173.381 9.51655 173.917 9.62132ZM174.107 8.6515L174.486 6.71178L176.426 7.09115L176.046 9.03088L174.107 8.6515ZM174.423 14.7551L180.243 15.8932C180.51 15.9456 180.685 16.2052 180.633 16.473C180.58 16.7408 180.321 16.9154 180.053 16.863L174.234 15.7249C173.966 15.6725 173.791 15.413 173.844 15.1452C173.896 14.8774 174.156 14.7027 174.423 14.7551ZM172.906 22.5139L177.755 23.4623C177.493 24.8014 176.195 25.6747 174.856 25.4128C173.517 25.1509 172.644 23.853 172.906 22.5139ZM180.675 26.5509L177.227 25.8765C178.006 25.3677 178.547 24.5654 178.725 23.652L181.15 24.1263L180.676 26.5509L180.675 26.5509ZM181.645 26.7406L182.12 24.3159L187.497 25.3678C187.438 25.5225 187.392 25.6818 187.359 25.8441C187.219 26.5609 187.35 27.3041 187.726 27.9299L181.645 26.7406ZM189.889 28.3529C188.818 28.1434 188.119 27.1051 188.329 26.0338C188.363 25.8704 188.418 25.712 188.491 25.5622L192.235 26.2944C192.247 26.4609 192.238 26.6283 192.208 26.7925C191.999 27.8638 190.96 28.5624 189.889 28.3529ZM192.779 25.3938L192.776 25.3933L171.168 21.1581C171.94 17.986 173.723 16.9486 174.194 16.7242L179.378 17.7381L179.246 18.4122C179.051 19.4259 179.271 20.4758 179.857 21.3258C180.146 21.7325 180.583 22.0096 181.074 22.0975L186.73 23.2039C187.265 23.3077 187.819 23.1875 188.263 22.8713C188.705 22.5576 188.996 22.0743 189.067 21.5373C189.386 19.249 189.442 16.9317 189.233 14.6308L190.215 14.8229C190.856 17.1482 190.995 19.583 190.625 21.9662C190.585 22.2327 190.763 22.4827 191.027 22.5339C192.365 22.7973 193.238 24.094 192.978 25.4327L192.779 25.3938L192.779 25.3938Z" fill="#C2203B"/>
</g>
<g clip-path="url(#clip2_23_1915)">
<path d="M38.365 201.795L38.1537 201.787L36.047 196.309C36.4323 196.496 36.8512 196.603 37.2787 196.625C37.4485 196.632 37.6139 196.571 37.7385 196.455C37.8631 196.34 37.9367 196.179 37.9432 196.009L38.1373 190.888C38.1437 190.718 38.0824 190.553 37.9669 190.428C37.8514 190.304 37.6911 190.23 37.5214 190.224C36.8546 190.202 36.1976 190.389 35.6423 190.759C35.087 191.129 34.6609 191.662 34.4237 192.286C34.2453 192.016 34.0133 191.785 33.7421 191.608C33.4709 191.432 33.1663 191.312 32.8471 191.258C32.4425 191.19 32.0286 191.201 31.6279 191.289L31.0709 191.268C29.9891 191.227 29.5332 190.568 28.8173 189.496L28.4598 188.951C28.8479 188.946 29.2279 188.838 29.5614 188.64C29.8152 188.47 30.033 188.252 30.2021 187.997C30.3713 187.743 30.4885 187.458 30.5471 187.158C30.7598 187.046 30.9478 186.892 31.1002 186.707C31.2526 186.521 31.3662 186.306 31.4344 186.076C31.4684 185.894 31.4576 185.706 31.4029 185.528C31.3482 185.351 31.2512 185.189 31.1204 185.058C30.8759 184.6 30.7519 184.088 30.7601 183.569C30.9257 183.566 31.0835 183.498 31.2004 183.381C31.3172 183.263 31.3839 183.105 31.3866 182.939C31.415 182.26 31.3071 181.582 31.0692 180.946C30.8312 180.309 30.4681 179.727 30.0013 179.233C29.5435 178.739 28.9929 178.34 28.381 178.059C27.7691 177.778 27.1078 177.62 26.4348 177.594C25.0758 177.543 23.752 178.033 22.7546 178.958C21.7572 179.883 21.168 181.165 21.1165 182.524C21.091 183.197 21.1982 183.869 21.4322 184.5C21.6661 185.132 22.0222 185.711 22.48 186.205C22.6163 186.351 22.7609 186.489 22.913 186.619C20.4192 187.127 19.0318 189.395 18.2899 191.38C18.1077 191.182 17.888 191.022 17.6436 190.909C17.3992 190.796 17.1349 190.733 16.8659 190.723L16.0465 190.692C17.1743 189.707 17.959 188.389 18.2869 186.928C18.6149 185.467 18.4689 183.939 17.8702 182.567C17.2715 181.194 16.2512 180.048 14.9573 179.295C13.6634 178.541 12.1631 178.219 10.674 178.376C9.18488 178.533 7.78437 179.16 6.67554 180.166C5.56671 181.172 4.80721 182.505 4.50718 183.972C4.20714 185.439 4.38217 186.964 5.00689 188.324C5.6316 189.685 6.67351 190.812 7.98155 191.54C7.97566 191.583 7.97403 191.626 7.9767 191.668L7.76294 197.308C7.74242 197.85 7.93788 198.377 8.30634 198.775C8.6748 199.172 9.18607 199.407 9.72767 199.428L12.9285 199.549C12.6168 199.827 12.3475 200.15 12.1293 200.506C11.2109 202.15 10.7014 203.991 10.6437 205.873C10.6373 206.043 10.6986 206.208 10.8141 206.333C10.9296 206.458 11.0899 206.531 11.2596 206.538L13.225 206.612C13.3422 207.849 13.9044 209.001 14.8072 209.854C15.71 210.707 16.8918 211.203 18.133 211.25C19.3742 211.297 20.5902 210.892 21.5549 210.109C22.5197 209.327 23.1675 208.221 23.378 206.997L33.0701 207.364C33.1562 208.347 33.5242 209.284 34.1298 210.063C34.7353 210.842 35.5528 211.429 36.484 211.755C37.4152 212.08 38.4206 212.13 39.3795 211.898C40.3384 211.667 41.21 211.163 41.8897 210.448C42.5694 209.733 43.0284 208.837 43.2115 207.868C43.3945 206.899 43.294 205.897 42.9218 204.983C42.5497 204.07 41.9217 203.283 41.1134 202.717C40.3051 202.152 39.3508 201.832 38.365 201.795ZM36.8285 191.589L36.6912 195.212C36.3211 195.066 36.0055 194.808 35.7879 194.475C35.5704 194.142 35.4616 193.749 35.4767 193.352C35.4918 192.954 35.6299 192.571 35.8721 192.255C36.1142 191.939 36.4484 191.706 36.8285 191.589ZM32.6137 192.512C32.8632 192.559 33.092 192.683 33.2688 192.865C33.4455 193.047 33.5615 193.28 33.6008 193.531L33.7524 193.927C32.8438 194.352 31.841 194.535 30.841 194.458C30.7673 194.075 30.8286 193.677 31.0146 193.334C31.2005 192.99 31.4997 192.722 31.8613 192.574C32.1057 192.504 32.3616 192.486 32.6134 192.519L32.6137 192.512ZM29.6944 186.145C29.5859 186.194 29.4933 186.273 29.4272 186.373C29.3612 186.472 29.3242 186.588 29.3205 186.707C29.3097 186.868 29.2654 187.025 29.1904 187.168C29.1154 187.311 29.0115 187.437 28.8852 187.537C28.5111 187.767 27.8347 187.683 26.9708 187.304C26.9241 187.297 26.8769 187.296 26.8299 187.299L26.737 187.212L26.83 184.76C26.8435 184.402 26.9989 184.064 27.2618 183.82C27.5247 183.577 27.8737 183.447 28.2319 183.461L29.4418 183.507C29.4306 184.336 29.6602 185.151 30.103 185.852C29.9825 185.972 29.8447 186.073 29.6942 186.151L29.6944 186.145ZM22.4265 182.542C22.4961 181.55 22.9408 180.622 23.6701 179.946C24.3994 179.269 25.3588 178.896 26.3532 178.902L26.4108 178.904C27.319 178.938 28.1858 179.293 28.8574 179.905C29.529 180.517 29.9619 181.347 30.0793 182.249L28.2804 182.18C27.5831 182.156 26.9043 182.408 26.3926 182.883C25.8808 183.357 25.5778 184.015 25.5496 184.712L25.4815 186.511C24.5831 186.324 23.7812 185.821 23.2209 185.095C22.6605 184.368 22.3787 183.465 22.4262 182.548L22.4265 182.542ZM24.1507 187.794C26.244 187.873 26.9707 188.997 27.7401 190.18C28.297 191.047 28.9534 191.995 30.0933 192.366C29.7087 192.937 29.5187 193.618 29.5518 194.307C28.7638 194.103 28.0272 193.737 27.3894 193.231C26.7516 192.725 26.2267 192.092 25.8486 191.371C25.8169 191.285 25.7672 191.207 25.7028 191.142C25.6383 191.077 25.5607 191.026 25.4751 190.994C25.3895 190.961 25.2979 190.948 25.2065 190.953C25.1151 190.959 25.026 190.985 24.9453 191.028C24.8645 191.071 24.794 191.131 24.7384 191.204C24.6828 191.277 24.6434 191.361 24.623 191.45C24.6026 191.539 24.6015 191.632 24.6199 191.721C24.6383 191.811 24.6757 191.896 24.7296 191.97C24.9469 192.368 25.1986 192.747 25.4817 193.101L25.4226 193.137C24.7999 193.801 24.349 194.607 24.1092 195.485L18.7382 195.282L18.7625 194.641C18.8221 194.253 19.8039 187.629 24.1507 187.794ZM27.4094 203.303L24.8487 203.206L24.8972 201.926C24.9295 201.502 24.8738 201.076 24.7337 200.674C24.5935 200.273 24.372 199.904 24.0829 199.592C23.7937 199.281 23.4433 199.032 23.0535 198.862C22.6637 198.691 22.243 198.604 21.8177 198.604L18.4696 198.477C18.5766 198.239 18.6364 197.982 18.6458 197.721L18.6897 196.562L24.4512 196.78C24.5792 196.785 27.6505 196.94 27.5307 200.102L27.4094 203.303ZM12.4382 192.357C13.1106 192.263 13.7657 192.072 14.383 191.789L14.3298 193.191L12.4093 193.118L12.4336 192.478C12.439 192.438 12.4405 192.397 12.4382 192.357ZM5.65866 185.17C5.70185 184.03 6.08197 182.929 6.75096 182.006C7.41995 181.082 8.34776 180.378 9.41706 179.981C10.4864 179.585 11.6491 179.515 12.7583 179.78C13.8675 180.044 14.8733 180.632 15.6485 181.468C16.4238 182.305 16.9336 183.352 17.1135 184.478C17.2935 185.604 17.1355 186.758 16.6595 187.795C16.1835 188.831 15.411 189.703 14.4395 190.3C13.468 190.897 12.3413 191.193 11.2018 191.149C9.67374 191.092 8.23129 190.429 7.19175 189.308C6.15222 188.186 5.60075 186.698 5.65866 185.17ZM9.7762 198.147C9.57416 198.14 9.38343 198.052 9.24598 197.904C9.10853 197.756 9.03562 197.559 9.04327 197.357L9.2432 192.082C9.86078 192.285 10.5036 192.402 11.1533 192.43L11.1047 193.71C11.0983 193.88 11.1596 194.045 11.2751 194.17C11.3906 194.295 11.5509 194.368 11.7206 194.375L14.9215 194.496C15.0912 194.502 15.2566 194.441 15.3812 194.326C15.5058 194.21 15.5795 194.05 15.5859 193.88L15.6587 191.959L16.8174 192.003C16.9174 192.007 17.0157 192.031 17.1067 192.072C17.1977 192.114 17.2795 192.174 17.3476 192.247C17.4157 192.32 17.4686 192.406 17.5034 192.5C17.5381 192.594 17.5541 192.694 17.5503 192.794L17.3652 197.679C17.3559 197.879 17.2676 198.068 17.1195 198.205C16.9715 198.341 16.7757 198.413 16.5748 198.405L9.7762 198.147ZM18.1802 210.005C17.2732 209.97 16.4079 209.615 15.7376 209.003C15.0674 208.391 14.6354 207.561 14.5181 206.661L15.8304 206.711C15.9573 207.259 16.261 207.75 16.6946 208.108C17.1282 208.467 17.6677 208.672 18.2299 208.694C18.792 208.715 19.3455 208.551 19.805 208.226C20.2646 207.902 20.6045 207.435 20.7725 206.898L22.0848 206.948C21.8998 207.837 21.4062 208.631 20.6915 209.191C19.9769 209.75 19.0872 210.039 18.1802 210.005ZM17.2004 206.763L19.4026 206.846C19.2819 207.033 19.1148 207.185 18.9176 207.288C18.7204 207.39 18.4999 207.44 18.2777 207.432C18.0555 207.423 17.8394 207.357 17.6505 207.24C17.4616 207.123 17.3065 206.958 17.2004 206.763ZM11.9483 205.282C12.0859 203.811 12.5377 202.388 13.2733 201.107C13.5461 200.643 13.9413 200.263 14.4157 200.008C14.8901 199.754 15.4253 199.635 15.9629 199.664L21.7692 199.884C22.0256 199.88 22.2799 199.93 22.5157 200.03C22.7516 200.131 22.9635 200.28 23.1378 200.468C23.3121 200.656 23.4449 200.879 23.5274 201.122C23.61 201.365 23.6404 201.622 23.6169 201.877L23.5441 203.798C23.5179 204.49 23.7169 205.173 24.1115 205.743L11.9483 205.282ZM26.6721 205.84C26.276 205.824 25.8945 205.685 25.58 205.444C25.2654 205.202 25.0333 204.869 24.9154 204.491L28.001 204.608C28.1685 204.603 28.3351 204.634 28.4902 204.698C28.6452 204.761 28.7852 204.857 28.9013 204.977C29.0174 205.098 29.107 205.242 29.1644 205.4C29.2218 205.557 29.2456 205.725 29.2345 205.892C29.0212 205.912 28.8068 205.919 28.5926 205.912L26.6721 205.84ZM30.804 205.246C30.7075 205.347 30.5986 205.436 30.4799 205.51C30.4279 205.023 30.2282 204.564 29.9075 204.194C29.5869 203.824 29.1607 203.562 28.6863 203.441L28.811 200.151C28.9083 199.109 28.6131 198.067 27.9832 197.231C27.3532 196.395 26.4338 195.824 25.4051 195.63C25.5909 195.062 25.8924 194.539 26.2903 194.093C26.3077 194.072 26.3236 194.049 26.3378 194.025C27.3009 194.868 28.4769 195.432 29.7379 195.654L31.2457 203.57C31.3247 204.165 31.166 204.768 30.804 205.246ZM32.536 203.357L31.0614 195.749C32.1442 195.8 33.2238 195.595 34.2126 195.15L36.9673 202.306L34.0276 206.118L31.7935 206.034C32.089 205.659 32.3069 205.23 32.4344 204.77C32.5619 204.31 32.5965 203.83 32.536 203.357ZM38.1951 206.276L37.094 206.235C37.2442 205.996 37.469 205.813 37.7334 205.715C37.9979 205.617 38.2873 205.609 38.5568 205.693C38.8263 205.776 39.0608 205.946 39.2239 206.176C39.387 206.406 39.4696 206.684 39.4589 206.965C39.4482 207.247 39.3448 207.518 39.1648 207.735C38.9847 207.952 38.7381 208.103 38.4631 208.166C38.1881 208.229 37.9001 208.199 37.6438 208.081C37.3875 207.963 37.1772 207.764 37.0455 207.515L38.1466 207.557C38.3164 207.563 38.4818 207.502 38.6064 207.386C38.731 207.271 38.8046 207.111 38.811 206.941C38.8175 206.771 38.7562 206.606 38.6407 206.481C38.5252 206.356 38.3649 206.283 38.1951 206.276ZM35.596 206.178L35.832 205.873C35.7894 205.974 35.7534 206.077 35.7241 206.183L35.596 206.178ZM38.0253 210.758C37.1183 210.722 36.253 210.367 35.5828 209.755C34.9125 209.143 34.4805 208.313 34.3632 207.413L35.6756 207.463C35.7953 208.008 36.0898 208.5 36.5144 208.862C36.9389 209.225 37.4703 209.439 38.0276 209.472C38.5849 209.504 39.1377 209.354 39.602 209.044C40.0662 208.734 40.4164 208.281 40.5994 207.753C40.7824 207.226 40.7881 206.653 40.6157 206.122C40.4433 205.591 40.1021 205.131 39.6442 204.812C39.1863 204.492 38.6366 204.331 38.0787 204.353C37.5208 204.375 36.9853 204.578 36.5536 204.932L37.9899 203.063C38.0988 203.067 38.2076 203.071 38.3164 203.076C39.3351 203.114 40.2968 203.556 40.9898 204.304C41.6828 205.051 42.0505 206.043 42.0118 207.062C41.9732 208.081 41.5315 209.042 40.7839 209.735C40.0363 210.429 39.044 210.796 38.0253 210.758Z" fill="#C2203B"/>
<path d="M13.2436 188.021C13.3707 188.027 13.4966 187.995 13.6053 187.928C13.7139 187.862 13.8003 187.765 13.8535 187.649C13.9067 187.534 13.9243 187.405 13.904 187.279C13.8837 187.154 13.8265 187.037 13.7396 186.944L12.0703 185.15L12.2059 181.571C12.2123 181.401 12.1511 181.236 12.0356 181.111C11.9201 180.987 11.7598 180.913 11.59 180.907C11.4202 180.9 11.2548 180.962 11.1302 181.077C11.0056 181.193 10.932 181.353 10.9256 181.523L10.78 185.364C10.7763 185.448 10.7893 185.532 10.8182 185.611C10.8471 185.69 10.8914 185.763 10.9484 185.825L12.7961 187.819C12.8537 187.88 12.9229 187.93 12.9997 187.965C13.0764 187.999 13.1593 188.019 13.2436 188.021Z" fill="#C2203B"/>
</g>
<g clip-path="url(#clip3_23_1915)">
<path d="M298.092 10.9913C293.173 10.9913 289.007 15.1812 289.007 20.1447C289.007 25.3422 293.835 30.6575 297.084 34.3932C297.096 34.4082 297.621 34.9913 298.268 34.9913H298.325C298.972 34.9913 299.493 34.4082 299.507 34.3932C302.555 30.8888 307.007 25.1108 307.007 20.1447C307.007 15.1812 303.757 10.9913 298.092 10.9913ZM298.393 33.3871C298.367 33.4133 298.329 33.4426 298.295 33.467C298.26 33.4434 298.223 33.4134 298.195 33.3871L297.803 32.936C294.723 29.4031 290.507 24.5652 290.507 20.1447C290.507 15.9961 293.981 12.491 298.092 12.491C303.214 12.491 305.507 16.3347 305.507 20.1447C305.507 23.5006 303.113 27.9563 298.393 33.3871ZM298.033 15.533C295.548 15.533 293.533 17.5478 293.533 20.033C293.533 22.5181 295.548 24.533 298.033 24.533C300.518 24.533 302.533 22.5181 302.533 20.033C302.533 17.5478 300.518 15.533 298.033 15.533ZM298.033 23.033C296.379 23.033 294.998 21.6545 294.998 20C294.998 18.3458 296.344 17 297.998 17C299.654 17 300.998 18.3458 300.998 20C300.999 21.6545 299.688 23.033 298.033 23.033Z" fill="#C2203B"/>
</g>
<path d="M262.496 94.0643L260.621 97.4113" stroke="#C2203B" stroke-miterlimit="10" stroke-linecap="round" stroke-linejoin="round"/>
<path d="M279.145 99.8931L278.183 105.591C278.128 105.913 278.047 106.231 277.939 106.54L277.341 108.248" stroke="#C2203B" stroke-miterlimit="10" stroke-linecap="round" stroke-linejoin="round"/>
<path d="M275.906 112.345L276.671 110.161" stroke="#C2203B" stroke-miterlimit="10" stroke-linecap="round" stroke-linejoin="round"/>
<path d="M264.292 94.5942L262.442 93.9467C262.103 93.8277 261.923 93.4558 262.043 93.1159L262.91 90.639C263.029 90.299 263.401 90.12 263.741 90.239L280.556 96.1262C280.896 96.2452 281.075 96.6171 280.956 96.9571L280.089 99.434C279.97 99.7739 279.598 99.953 279.258 99.8339L272.163 97.3498" stroke="#C2203B" stroke-miterlimit="10" stroke-linecap="round" stroke-linejoin="round"/>
<path d="M269.479 96.4102L266.205 95.2639" stroke="#C2203B" stroke-miterlimit="10" stroke-linecap="round" stroke-linejoin="round"/>
<path d="M271.37 99.2887L270.339 98.2629L268.893 98.4213L269.988 95.2923C270.041 95.1414 270.206 95.0619 270.357 95.1147L272.288 95.7908C272.439 95.8436 272.519 96.0089 272.466 96.1598L271.37 99.2887L271.37 99.2887Z" stroke="#C2203B" stroke-miterlimit="10" stroke-linecap="round" stroke-linejoin="round"/>
<path d="M268.296 104.536L265.977 110.09" stroke="#C2203B" stroke-miterlimit="10" stroke-linecap="round" stroke-linejoin="round"/>
<path d="M255.591 105.592L257.02 100.588" stroke="#C2203B" stroke-miterlimit="10" stroke-linecap="round" stroke-linejoin="round"/>
<path d="M255.035 107.541L253.124 114.235C253.038 114.537 253.203 114.853 253.499 114.957L261.8 117.863" stroke="#C2203B" stroke-miterlimit="10" stroke-linecap="round" stroke-linejoin="round"/>
<path d="M263.167 120.53L253.659 117.202C253.194 117.039 252.949 116.53 253.111 116.064L253.48 115.012" stroke="#C2203B" stroke-miterlimit="10" stroke-linecap="round" stroke-linejoin="round"/>
<path d="M269.941 105.054L255.411 99.9676L255.893 98.5916C255.998 98.2897 256.329 98.1307 256.631 98.2364L270.067 102.94C270.369 103.046 270.528 103.376 270.422 103.678L269.941 105.054Z" stroke="#C2203B" stroke-miterlimit="10" stroke-linecap="round" stroke-linejoin="round"/>
<path d="M257.474 98.4545L257.932 97.1472C258.037 96.8454 258.368 96.6864 258.67 96.792L269.374 100.54C269.676 100.645 269.835 100.976 269.729 101.278L269.286 102.543" stroke="#C2203B" stroke-miterlimit="10" stroke-linecap="round" stroke-linejoin="round"/>
<path d="M256.448 102.997L267.23 106.772" stroke="#C2203B" stroke-miterlimit="10" stroke-linecap="round" stroke-linejoin="round"/>
<path d="M261.19 115.111L253.741 112.503" stroke="#C2203B" stroke-miterlimit="10" stroke-linecap="round" stroke-linejoin="round"/>
<path d="M263.669 112.842C264.602 110.31 267.398 108.986 269.954 109.881L274.133 111.344C276.669 112.232 278.027 114.974 277.218 117.518" stroke="#C2203B" stroke-miterlimit="10" stroke-linecap="round" stroke-linejoin="round"/>
<path d="M262.815 98.1395L263.225 96.9688C263.278 96.8179 263.443 96.7384 263.594 96.7912L265.525 97.4673C265.676 97.5202 265.756 97.6854 265.703 97.8363L265.306 98.9709" stroke="#C2203B" stroke-miterlimit="10" stroke-linecap="round" stroke-linejoin="round"/>
<path d="M275.902 121.283L275.431 122.629C275.053 123.707 273.875 124.274 272.797 123.897L263.168 120.526C262.091 120.149 261.523 118.97 261.901 117.893L262.372 116.546" stroke="#C2203B" stroke-miterlimit="10" stroke-linecap="round" stroke-linejoin="round"/>
<path d="M268.545 118.603L261.88 116.27C261.394 116.1 261.137 115.567 261.308 115.08C261.478 114.593 262.011 114.337 262.498 114.507L277.075 119.611C277.562 119.781 277.819 120.314 277.648 120.801C277.478 121.288 276.945 121.544 276.458 121.374L273.162 120.219" stroke="#C2203B" stroke-miterlimit="10" stroke-linecap="round" stroke-linejoin="round"/>
<path d="M262.5 114.502C262.013 114.331 261.756 113.799 261.927 113.312C262.012 113.068 262.188 112.882 262.403 112.778C262.619 112.675 262.874 112.654 263.117 112.739L272.218 115.925" stroke="#C2203B" stroke-miterlimit="10" stroke-linecap="round" stroke-linejoin="round"/>
<path d="M274.131 116.595L277.695 117.842C278.181 118.013 278.438 118.545 278.267 119.032C278.182 119.276 278.006 119.462 277.791 119.566C277.575 119.669 277.321 119.691 277.078 119.605" stroke="#C2203B" stroke-miterlimit="10" stroke-linecap="round" stroke-linejoin="round"/>
<path d="M270.384 119.173L271.35 120.943L275.614 119.151" stroke="#C2203B" stroke-miterlimit="10" stroke-linecap="round" stroke-linejoin="round"/>
<path d="M267.034 116.147L269.159 119.553L272.944 118.216" stroke="#C2203B" stroke-miterlimit="10" stroke-linecap="round" stroke-linejoin="round"/>
<path d="M254.362 109.941C255.142 110.214 256.394 109.732 256.743 109.391L256.752 109.382C257.055 109.087 257.35 108.696 257.691 108.243C258.275 107.468 259.001 106.504 260.116 105.582C260.506 105.259 260.925 104.984 261.352 104.749" stroke="#C2203B" stroke-miterlimit="10" stroke-linecap="round" stroke-linejoin="round"/>
<path d="M265.841 106.32C265.841 106.32 263.434 106.595 261.961 107.813C260.488 109.031 259.87 110.388 258.77 111.458C257.357 112.843 254.908 112.84 254.908 112.84" stroke="#C2203B" stroke-miterlimit="10" stroke-linecap="round" stroke-linejoin="round"/>
<path d="M96.4318 176.911L97.1763 180.658" stroke="#C2203B" stroke-miterlimit="10" stroke-linecap="round" stroke-linejoin="round"/>
<path d="M112.808 170.558L115.763 175.495C115.931 175.775 116.074 176.068 116.192 176.372L116.843 178.052" stroke="#C2203B" stroke-miterlimit="10" stroke-linecap="round" stroke-linejoin="round"/>
<path d="M118.407 182.082L117.574 179.934" stroke="#C2203B" stroke-miterlimit="10" stroke-linecap="round" stroke-linejoin="round"/>
<path d="M98.1342 176.151L96.315 176.856C95.9806 176.986 95.6046 176.82 95.4749 176.486L94.53 174.05C94.4003 173.715 94.5662 173.339 94.9005 173.209L111.441 166.794C111.775 166.665 112.151 166.831 112.281 167.165L113.226 169.601C113.356 169.936 113.19 170.312 112.855 170.441L105.876 173.148" stroke="#C2203B" stroke-miterlimit="10" stroke-linecap="round" stroke-linejoin="round"/>
<path d="M103.236 174.172L100.016 175.421" stroke="#C2203B" stroke-miterlimit="10" stroke-linecap="round" stroke-linejoin="round"/>
<path d="M106.529 175.129L105.085 175.019L104.092 176.074L102.899 172.997C102.841 172.848 102.915 172.681 103.063 172.624L104.963 171.887C105.111 171.829 105.278 171.903 105.336 172.051L106.529 175.129L106.529 175.129Z" stroke="#C2203B" stroke-miterlimit="10" stroke-linecap="round" stroke-linejoin="round"/>
<path d="M107.595 181.09L109.43 186.795" stroke="#C2203B" stroke-miterlimit="10" stroke-linecap="round" stroke-linejoin="round"/>
<path d="M98.6576 190.105L96.5038 185.392" stroke="#C2203B" stroke-miterlimit="10" stroke-linecap="round" stroke-linejoin="round"/>
<path d="M99.4966 191.94L102.378 198.244C102.508 198.528 102.836 198.661 103.128 198.548L111.292 195.382" stroke="#C2203B" stroke-miterlimit="10" stroke-linecap="round" stroke-linejoin="round"/>
<path d="M114.052 196.518L104.7 200.145C104.243 200.323 103.728 200.095 103.55 199.638L103.149 198.602" stroke="#C2203B" stroke-miterlimit="10" stroke-linecap="round" stroke-linejoin="round"/>
<path d="M109.175 180.418L94.8839 185.961L94.359 184.608C94.2439 184.311 94.3912 183.977 94.6881 183.862L107.904 178.736C108.201 178.621 108.535 178.768 108.65 179.065L109.175 180.418Z" stroke="#C2203B" stroke-miterlimit="10" stroke-linecap="round" stroke-linejoin="round"/>
<path d="M95.4671 183.483L94.9684 182.197C94.8533 181.9 95.0006 181.566 95.2975 181.451L105.827 177.367C106.124 177.252 106.458 177.399 106.573 177.696L107.055 178.941" stroke="#C2203B" stroke-miterlimit="10" stroke-linecap="round" stroke-linejoin="round"/>
<path d="M97.628 187.585L108.234 183.472" stroke="#C2203B" stroke-miterlimit="10" stroke-linecap="round" stroke-linejoin="round"/>
<path d="M109.051 193.693L101.724 196.535" stroke="#C2203B" stroke-miterlimit="10" stroke-linecap="round" stroke-linejoin="round"/>
<path d="M109.462 190.372C108.531 187.851 109.792 185.041 112.306 184.066L116.417 182.471C118.911 181.504 121.712 182.702 122.745 185.152" stroke="#C2203B" stroke-miterlimit="10" stroke-linecap="round" stroke-linejoin="round"/>
<path d="M99.3087 179.79L98.8621 178.639C98.8046 178.49 98.8782 178.323 99.0267 178.266L100.926 177.529C101.075 177.471 101.242 177.545 101.299 177.693L101.732 178.809" stroke="#C2203B" stroke-miterlimit="10" stroke-linecap="round" stroke-linejoin="round"/>
<path d="M124.182 188.854L124.696 190.178C125.107 191.238 124.581 192.43 123.522 192.841L114.05 196.514C112.991 196.925 111.799 196.399 111.388 195.34L110.874 194.015" stroke="#C2203B" stroke-miterlimit="10" stroke-linecap="round" stroke-linejoin="round"/>
<path d="M116.878 191.582L110.323 194.124C109.844 194.31 109.306 194.072 109.12 193.594C108.934 193.115 109.172 192.576 109.651 192.39L123.989 186.829C124.468 186.644 125.007 186.881 125.193 187.36C125.378 187.839 125.141 188.378 124.662 188.563L121.419 189.821" stroke="#C2203B" stroke-miterlimit="10" stroke-linecap="round" stroke-linejoin="round"/>
<path d="M109.649 192.384C109.17 192.57 108.632 192.332 108.446 191.853C108.353 191.614 108.365 191.359 108.462 191.142C108.558 190.924 108.737 190.743 108.977 190.65L117.928 187.178" stroke="#C2203B" stroke-miterlimit="10" stroke-linecap="round" stroke-linejoin="round"/>
<path d="M119.81 186.449L123.316 185.09C123.794 184.904 124.333 185.142 124.519 185.621C124.611 185.86 124.599 186.115 124.503 186.333C124.407 186.551 124.227 186.731 123.988 186.824" stroke="#C2203B" stroke-miterlimit="10" stroke-linecap="round" stroke-linejoin="round"/>
<path d="M118.64 190.823L120.516 191.539L122.587 187.425" stroke="#C2203B" stroke-miterlimit="10" stroke-linecap="round" stroke-linejoin="round"/>
<path d="M114.147 190.699L117.958 191.903L119.96 188.444" stroke="#C2203B" stroke-miterlimit="10" stroke-linecap="round" stroke-linejoin="round"/>
<path d="M100.539 194.193C101.306 193.896 101.942 192.721 101.985 192.237L101.986 192.224C102.026 191.805 101.996 191.318 101.961 190.754C101.902 189.79 101.829 188.591 102.077 187.172C102.164 186.675 102.303 186.195 102.475 185.741" stroke="#C2203B" stroke-miterlimit="10" stroke-linecap="round" stroke-linejoin="round"/>
<path d="M106.889 184.029C106.889 184.029 105.244 185.793 104.917 187.668C104.589 189.543 104.999 190.97 104.857 192.492C104.683 194.453 102.826 196.035 102.826 196.035" stroke="#C2203B" stroke-miterlimit="10" stroke-linecap="round" stroke-linejoin="round"/>
<path d="M49.4998 208.001C49.4998 208.001 101.921 220.939 131 208.001C184.659 184.125 131.647 103 176 64.5007C217.268 28.6785 291.5 35.0006 291.5 35.0006" stroke="#C2203B" stroke-opacity="0.66" stroke-width="2" stroke-linecap="round" stroke-dasharray="5 5"/>
<g clip-path="url(#clip4_23_1915)">
<path d="M77.715 24.2703L79.7129 19.107C79.7572 18.9924 79.7542 18.8649 79.7046 18.7525C79.6549 18.6401 79.5626 18.5521 79.448 18.5077C76.8091 17.4866 74.6871 21.8712 74.5981 22.0583C74.5586 22.1413 74.5447 22.2342 74.5582 22.3252C74.5716 22.4161 74.6119 22.501 74.6737 22.569L75.178 23.1237L75.1224 23.2674L73.4917 26.4868C73.4039 26.6601 73.3535 26.8498 73.3435 27.0437C73.3336 27.2376 73.3644 27.4315 73.4339 27.6128C73.5035 27.7941 73.6103 27.9588 73.7474 28.0963C73.8845 28.2338 74.0489 28.341 74.23 28.4111L74.9126 28.6753C75.0937 28.7453 75.2875 28.7767 75.4815 28.7673C75.6754 28.7579 75.8652 28.7079 76.0387 28.6207C76.2122 28.5334 76.3655 28.4108 76.4886 28.2607C76.6118 28.1106 76.7022 27.9363 76.7539 27.7491L77.715 24.2703ZM75.5758 22.1839C75.8851 21.607 76.2494 21.0613 76.6636 20.5545C77.3738 19.7059 78.0401 19.2801 78.6511 19.2835L77.0097 23.5255L76.1455 23.1911C76.1766 23.1108 76.1846 23.0235 76.1689 22.939C76.1531 22.8544 76.1141 22.7759 76.0562 22.7122L75.5758 22.1839ZM75.6222 27.7929C75.5645 27.8223 75.5013 27.8391 75.4366 27.8422C75.3719 27.8454 75.3073 27.8348 75.247 27.8111L74.5643 27.547C74.5039 27.5236 74.4491 27.4878 74.4034 27.442C74.3577 27.3961 74.3221 27.3412 74.2989 27.2807C74.2757 27.2203 74.2655 27.1556 74.2688 27.091C74.2721 27.0263 74.289 26.963 74.3183 26.9053L75.7701 24.0394L76.7163 24.4055L75.8609 27.5022C75.844 27.5648 75.814 27.6231 75.7729 27.6732C75.7318 27.7233 75.6805 27.7641 75.6224 27.7929L75.6222 27.7929Z" fill="#C2203B"/>
<path d="M98.8894 10.6307L95.4328 9.29318C95.3182 9.24884 95.1907 9.25183 95.0783 9.30151C94.9659 9.35119 94.8779 9.44347 94.8335 9.55806L94.6663 9.99014L85.6458 6.49967C85.2551 6.3488 84.8328 6.29808 84.4175 6.35213L79.2944 7.02267L74.2198 5.05904C73.4929 4.77778 72.6298 5.31663 72.2548 6.28577C71.9048 7.19032 72.1218 8.10341 72.7431 8.45008L68.2434 14.2909C68.2394 14.2961 68.2354 14.3014 68.2317 14.3067C68.1226 14.4615 68.0329 14.6291 67.9645 14.8057L63.1983 27.1231C63.154 27.2377 63.157 27.3652 63.2066 27.4776C63.2563 27.59 63.3486 27.678 63.4632 27.7224L82.9066 35.2459C83.0212 35.2903 83.1487 35.2873 83.2611 35.2376C83.3735 35.1879 83.4615 35.0956 83.5059 34.9811L88.2581 22.6997C88.338 22.4934 88.3878 22.2766 88.4062 22.0561L88.9743 15.2388C89.5623 15.4613 90.2124 15.4548 90.7957 15.2206C91.3791 14.9863 91.8531 14.5414 92.1239 13.974L92.9944 14.3109L92.66 15.1751C92.6157 15.2896 92.6187 15.4172 92.6684 15.5295C92.7181 15.6419 92.8103 15.73 92.9249 15.7743L96.3815 17.1118C96.4961 17.1562 96.6237 17.1532 96.736 17.1035C96.8484 17.0538 96.9365 16.9615 96.9808 16.847L99.1543 11.23C99.1986 11.1154 99.1956 10.9879 99.146 10.8755C99.0963 10.7631 99.004 10.675 98.8894 10.6307ZM73.1189 6.62015C73.3231 6.09264 73.7092 5.85502 73.8854 5.92319L86.2367 10.7025L83.8396 11.762L73.2166 7.65149C73.0405 7.58332 72.9148 7.14766 73.1189 6.62015ZM83.3543 20.1584C83.2452 20.3132 83.1555 20.4808 83.0871 20.6574L78.4882 32.5427L64.2297 27.0254L68.8287 15.14C68.8686 15.0369 68.9207 14.9389 68.9838 14.8481L73.6372 8.80777L82.7235 12.3237C82.3505 12.6175 82.0916 13.0322 81.9913 13.4963C81.8911 13.9604 81.9558 14.445 82.1744 14.8665C82.3929 15.2881 82.7516 15.6202 83.1886 15.8058C83.6257 15.9914 84.1138 16.0189 84.5689 15.8834L87.2732 15.0708L83.366 20.1426C83.362 20.1478 83.3581 20.1531 83.3543 20.1584ZM81.5129 32.4286L82.1979 33.9781L79.9634 33.1135L81.5129 32.4286ZM87.4827 21.9794C87.4718 22.1116 87.4419 22.2416 87.3939 22.3653L83.0454 33.6035L82.2507 31.8057L85.8596 22.4791C85.904 22.3645 85.901 22.2369 85.8513 22.1246C85.8016 22.0122 85.7093 21.9241 85.5948 21.8798C85.4802 21.8354 85.3526 21.8384 85.2403 21.8881C85.1279 21.9378 85.0398 22.0301 84.9955 22.1447L81.3865 31.4714L79.5887 32.2661L83.9513 20.9917C83.9913 20.8886 84.0433 20.7906 84.1064 20.6998L88.0117 15.6302L87.4827 21.9794ZM93.3288 13.4467L92.2904 13.0449C92.1074 12.9744 91.9039 12.9793 91.7245 13.0586C91.5452 13.1378 91.4046 13.285 91.3336 13.4679C91.1823 13.8575 90.8826 14.1713 90.5002 14.3403C90.1179 14.5093 89.6841 14.5198 89.294 14.3694L88.2319 13.9584C88.097 13.9064 87.9487 13.9007 87.8102 13.9421L84.3021 14.9961C84.0307 15.0778 83.7384 15.0529 83.4847 14.9265C83.2311 14.8001 83.0351 14.5818 82.9369 14.3159C82.8386 14.0501 82.8454 13.7568 82.9559 13.4958C83.0664 13.2349 83.2723 13.0258 83.5315 12.9114L87.6341 11.0979C87.718 11.0609 87.789 10.9998 87.8381 10.9225C87.8873 10.8451 87.9124 10.7549 87.9102 10.6632C87.9081 10.5716 87.8788 10.4827 87.8261 10.4077C87.7734 10.3327 87.6996 10.275 87.6141 10.2419L81.0992 7.721L84.5378 7.27089C84.7994 7.23685 85.0653 7.26879 85.3114 7.36382L94.332 10.8543L93.3288 13.4467ZM96.2838 16.0805L93.6914 15.0774L95.5305 10.3245L98.1229 11.3277L96.2838 16.0805Z" fill="#C2203B"/>
<path d="M75.8242 17.6024C75.8686 17.4878 75.8656 17.3603 75.8159 17.2479C75.7662 17.1355 75.6739 17.0475 75.5593 17.0031C75.4447 16.9588 75.3172 16.9618 75.2048 17.0115C75.0925 17.0611 75.0044 17.1534 74.9601 17.268L74.4585 18.5642L73.5943 18.2299L74.0959 16.9336C74.1403 16.819 74.1373 16.6915 74.0876 16.5791C74.0379 16.4668 73.9456 16.3787 73.831 16.3344C73.7164 16.29 73.5889 16.293 73.4765 16.3427C73.3642 16.3924 73.2761 16.4847 73.2318 16.5992L72.7302 17.8955L71.866 17.5611L72.3676 16.2649C72.412 16.1503 72.409 16.0228 72.3593 15.9104C72.3096 15.798 72.2173 15.7099 72.1027 15.6656C71.9881 15.6213 71.8606 15.6243 71.7482 15.6739C71.6359 15.7236 71.5478 15.8159 71.5035 15.9305L70.8347 17.6588L70.8355 17.6591C70.8093 17.726 70.799 17.7981 70.8056 17.8697L70.989 19.806L68.6947 24.6729C68.6133 24.8455 68.5684 25.0331 68.5627 25.2238C68.5569 25.4146 68.5906 25.6045 68.6615 25.7817C68.7323 25.959 68.839 26.1197 68.9747 26.2539C69.1104 26.3881 69.2723 26.4929 69.4503 26.5617L70.1866 26.8466C70.3646 26.9155 70.5549 26.947 70.7456 26.9391C70.9363 26.9312 71.1233 26.8841 71.295 26.8008C71.4667 26.7175 71.6195 26.5997 71.7436 26.4547C71.8678 26.3098 71.9608 26.1408 72.0168 25.9583L73.5961 20.8148L75.035 19.5063C75.0881 19.4578 75.129 19.3975 75.1547 19.3304L75.1555 19.3307L75.8242 17.6024ZM73.8571 19.3251L73.0906 20.022L71.8964 19.5599L71.7987 18.5286L73.8571 19.3251ZM70.8905 25.9672C70.8334 25.9953 70.771 26.0111 70.7074 26.0137C70.6437 26.0164 70.5803 26.0057 70.521 25.9825L69.7847 25.6976C69.7254 25.6746 69.6714 25.6397 69.6262 25.595C69.5809 25.5503 69.5454 25.4967 69.5218 25.4376C69.4981 25.3786 69.4869 25.3153 69.4888 25.2517C69.4907 25.1881 69.5057 25.1256 69.5328 25.068L71.6973 20.4764L72.6209 20.8338L71.1309 25.6864C71.1126 25.7473 71.0817 25.8038 71.0403 25.8521C70.9989 25.9004 70.9479 25.9396 70.8905 25.9672Z" fill="#C2203B"/>
</g>
<g clip-path="url(#clip5_23_1915)">
<path d="M198.769 84.3245C198.327 82.1973 196.233 80.8243 194.106 81.2667C191.978 81.709 190.606 83.8029 191.048 85.9301C191.491 88.061 193.584 89.4303 195.711 88.9879C197.838 88.5456 199.212 86.4554 198.769 84.3245ZM195.405 87.5158C194.088 87.7898 192.794 86.9415 192.52 85.624C192.246 84.3064 193.094 83.0128 194.412 82.7388C195.729 82.4648 197.023 83.3131 197.297 84.6306C197.571 85.9482 196.723 87.2419 195.405 87.5158Z" fill="#C2203B"/>
<path d="M201.13 84.6014C201.138 84.5999 201.144 84.5947 201.155 84.5924C201.163 84.5908 201.171 84.593 201.182 84.5907L203.784 84.0496C204.189 83.9654 204.451 83.5653 204.367 83.1605C204.283 82.7557 203.883 82.4933 203.478 82.5775L201.523 82.9839C200.447 79.6524 197.001 77.5931 193.501 78.3209C190.001 79.0487 187.655 82.3162 187.995 85.7971L186.088 86.1935C185.683 86.2777 185.421 86.6778 185.505 87.0826C185.589 87.4874 185.99 87.7498 186.394 87.6656L188.996 87.1245C189.401 87.0404 189.664 86.6403 189.579 86.2354C188.968 83.2949 190.863 80.4052 193.803 79.7938C196.744 79.1823 199.633 81.0771 200.245 84.0176C200.326 84.4269 200.722 84.6863 201.13 84.6014Z" fill="#C2203B"/>
<path d="M200.685 112.906C202.308 112.569 203.354 110.973 203.017 109.35L202.331 106.052L205.456 105.402C207.583 104.96 208.953 102.871 208.511 100.743L206.133 89.3087C205.691 87.1815 203.601 85.8115 201.474 86.2538C201.069 86.338 200.807 86.7381 200.891 87.1429C200.975 87.5477 201.375 87.8101 201.78 87.7259C203.094 87.4527 204.388 88.301 204.661 89.6148L207.039 101.053C207.313 102.367 206.464 103.661 205.15 103.934L202.026 104.584L201.34 101.286C201.003 99.6631 199.407 98.6166 197.784 98.9541C196.161 99.2916 195.114 100.888 195.452 102.511L196.137 105.808L193.013 106.458C191.699 106.731 190.405 105.883 190.132 104.569L187.754 93.1306C187.48 91.8167 188.329 90.523 189.642 90.2498C190.047 90.1656 190.31 89.7655 190.225 89.3607C190.141 88.9559 189.741 88.6935 189.336 88.7777C187.209 89.22 185.839 91.3095 186.281 93.4367L188.66 104.875C189.102 107.002 191.192 108.372 193.319 107.93L196.443 107.28L197.129 110.578C197.467 112.201 199.062 113.244 200.685 112.906ZM196.924 102.204C196.755 101.391 197.276 100.595 198.09 100.426C198.903 100.257 199.699 100.779 199.868 101.592L201.546 109.659C201.715 110.473 201.193 111.269 200.379 111.438C199.566 111.607 198.77 111.085 198.601 110.272L196.924 102.204Z" fill="#C2203B"/>
<path d="M195.732 92.7807L196.291 95.4674C196.375 95.8722 196.775 96.1345 197.18 96.0504C197.585 95.9662 197.847 95.5661 197.763 95.1612L197.204 92.4746C197.12 92.0698 196.72 91.8074 196.315 91.8916C195.91 91.9758 195.648 92.3759 195.732 92.7807Z" fill="#C2203B"/>
</g>
<defs>
<clipPath id="clip0_23_1915">
<rect width="29.6468" height="29.6468" fill="white" transform="translate(215.585 188.116) rotate(-25.3958)"/>
</clipPath>
<clipPath id="clip1_23_1915">
<rect width="29.6468" height="29.6468" fill="white" transform="translate(168.74 0.0498047) rotate(11.0664)"/>
</clipPath>
<clipPath id="clip2_23_1915">
<rect width="41" height="41" fill="white" transform="translate(4.79077 174.238) rotate(2.1705)"/>
</clipPath>
<clipPath id="clip3_23_1915">
<rect width="24" height="24" fill="white" transform="translate(286.007 11)"/>
</clipPath>
<clipPath id="clip4_23_1915">
<rect width="29.6509" height="29.6509" fill="white" transform="translate(72.7) rotate(21.1538)"/>
</clipPath>
<clipPath id="clip5_23_1915">
<rect width="37.5903" height="37.5903" fill="white" transform="translate(174.862 81.041) rotate(-11.7467)"/>
</clipPath>
</defs>
</svg>
